<?xml version="1.0" standalone="no"?><!DOCTYPE svg PUBLIC "-//W3C//DTD SVG 1.1//EN" "http://www.w3.org/Graphics/SVG/1.1/DTD/svg11.dtd"><svg t="1597826288005" class="icon" viewBox="0 0 1024 1024" version="1.1" xmlns="http://www.w3.org/2000/svg" p-id="885" xmlns:xlink="http://www.w3.org/1999/xlink" width="200" height="200"><defs><style type="text/css"></style></defs><path d="M512 1024A512 512 0 1 1 1024 512 512.650159 512.650159 0 0 1 512 1024z m0-1007.746032A495.746032 495.746032 0 1 0 1007.746032 512 496.233651 496.233651 0 0 0 512 16.253968z" p-id="886"></path><path d="M604.16 656.497778a40.147302 40.147302 0 0 1-0.812698 8.939682 19.504762 19.504762 0 0 1-2.275556 5.851429 8.939683 8.939683 0 0 1-3.250794 3.250794 7.801905 7.801905 0 0 1-3.738412 0.975238H406.349206a6.989206 6.989206 0 0 1-3.575873-0.975238 10.40254 10.40254 0 0 1-3.250793-3.250794 16.253968 16.253968 0 0 1-2.438096-5.851429 40.147302 40.147302 0 0 1-0.812698-8.939682 38.684444 38.684444 0 0 1 0.812698-8.614603 25.35619 25.35619 0 0 1 2.113016-6.013969 9.914921 9.914921 0 0 1 3.088254-3.575873 6.826667 6.826667 0 0 1 4.063492-1.300317h74.930794V363.60127l-69.404444 41.447619a31.045079 31.045079 0 0 1-8.452064 3.413333 5.688889 5.688889 0 0 1-5.20127-1.300317 10.24 10.24 0 0 1-2.600635-6.013968 65.015873 65.015873 0 0 1 0-10.56508 68.104127 68.104127 0 0 1 0-8.126984 25.35619 25.35619 0 0 1 1.300318-5.526349 11.865397 11.865397 0 0 1 2.438095-3.900953 21.617778 21.617778 0 0 1 4.063492-3.413333l82.407619-52.662857a9.752381 9.752381 0 0 1 2.763175-1.462857l4.226031-1.137778a35.271111 35.271111 0 0 1 5.851429 0h8.289524a93.460317 93.460317 0 0 1 11.052698 0 30.232381 30.232381 0 0 1 6.989207 1.462857 6.176508 6.176508 0 0 1 3.413333 2.438095 6.664127 6.664127 0 0 1 0.812698 3.250794v315.489524h65.015873a7.476825 7.476825 0 0 1 4.226032 1.300317 9.264762 9.264762 0 0 1 3.250794 3.575873 21.942857 21.942857 0 0 1 1.950476 6.013969 46.32381 46.32381 0 0 1 0.487619 8.614603z" p-id="887"></path></svg>