<?xml version="1.0" standalone="no"?><!DOCTYPE svg PUBLIC "-//W3C//DTD SVG 1.1//EN" "http://www.w3.org/Graphics/SVG/1.1/DTD/svg11.dtd"><svg t="1597826318119" class="icon" viewBox="0 0 1024 1024" version="1.1" xmlns="http://www.w3.org/2000/svg" p-id="1425" xmlns:xlink="http://www.w3.org/1999/xlink" width="200" height="200"><defs><style type="text/css"></style></defs><path d="M512 1024A512 512 0 1 1 1024 512 512.650159 512.650159 0 0 1 512 1024z m0-1007.746032A495.746032 495.746032 0 1 0 1007.746032 512 496.233651 496.233651 0 0 0 512 16.253968z" p-id="1426"></path><path d="M480.467302 674.539683a21.292698 21.292698 0 0 1-0.812699 6.501587 12.190476 12.190476 0 0 1-2.275555 4.388571 7.964444 7.964444 0 0 1-3.088254 2.275556 8.452063 8.452063 0 0 1-3.413334 0h-182.044444a7.476825 7.476825 0 0 1-3.250794 0 8.126984 8.126984 0 0 1-2.925714-2.275556 12.353016 12.353016 0 0 1-2.275556-4.388571 21.780317 21.780317 0 0 1-0.812698-6.501587 25.35619 25.35619 0 0 1 0-6.176508 13.815873 13.815873 0 0 1 1.950476-4.551112 9.264762 9.264762 0 0 1 2.925714-2.763174 7.151746 7.151746 0 0 1 3.575873-0.975238h79.644445V364.413968l-76.068572 46.32381a20.805079 20.805079 0 0 1-7.151746 3.738412 5.36381 5.36381 0 0 1-4.388571-0.975238 7.476825 7.476825 0 0 1-2.275556-4.551111 45.99873 45.99873 0 0 1 0-7.639365 59.489524 59.489524 0 0 1 0-6.176508 16.253968 16.253968 0 0 1 1.137778-4.551111 12.190476 12.190476 0 0 1 2.113016-3.413333 20.31746 20.31746 0 0 1 3.250794-2.763175l86.146032-54.938412 2.275555-1.137778 3.413333-0.975238H385.706667a50.387302 50.387302 0 0 1 8.126984 0 24.055873 24.055873 0 0 1 5.363809 1.462857 5.526349 5.526349 0 0 1 3.575873 5.20127v325.241904h68.266667a7.964444 7.964444 0 0 1 3.738413 0.975238 8.939683 8.939683 0 0 1 3.088254 2.763175 14.140952 14.140952 0 0 1 1.950476 4.551111 25.35619 25.35619 0 0 1 0.650159 6.989207zM768.812698 674.539683a21.292698 21.292698 0 0 1-0.812698 6.501587 12.190476 12.190476 0 0 1-2.275556 4.388571 7.964444 7.964444 0 0 1-3.088254 2.275556 8.452063 8.452063 0 0 1-3.413333 0H577.015873a7.476825 7.476825 0 0 1-3.250794 0 8.126984 8.126984 0 0 1-2.925714-2.275556 12.353016 12.353016 0 0 1-2.275555-4.388571 21.780317 21.780317 0 0 1-0.812699-6.501587 25.35619 25.35619 0 0 1 0-6.176508 13.815873 13.815873 0 0 1 1.950476-4.551112 9.264762 9.264762 0 0 1 2.925715-2.763174 7.151746 7.151746 0 0 1 3.575873-0.975238h79.644444V364.413968l-76.068571 46.32381a20.805079 20.805079 0 0 1-7.314286 3.250793 5.36381 5.36381 0 0 1-4.388572-0.975238 7.476825 7.476825 0 0 1-2.275555-4.551111 45.99873 45.99873 0 0 1 0-7.639365 59.489524 59.489524 0 0 1 0-6.176508 16.253968 16.253968 0 0 1 1.137778-4.551111 12.190476 12.190476 0 0 1 2.113016-3.413333 20.31746 20.31746 0 0 1 3.250793-2.763175l85.983492-55.100952 2.275556-1.137778 3.413333-0.975238h10.56508a50.387302 50.387302 0 0 1 8.126984 0 24.055873 24.055873 0 0 1 5.363809 1.462857 5.526349 5.526349 0 0 1 2.763175 5.03873v326.054603h68.266666a7.964444 7.964444 0 0 1 3.738413 0.975238 8.939683 8.939683 0 0 1 3.088254 2.763175 14.140952 14.140952 0 0 1 1.950476 4.551111 25.35619 25.35619 0 0 1 0.975238 6.989207z" p-id="1427"></path></svg>