<?xml version="1.0" standalone="no"?><!DOCTYPE svg PUBLIC "-//W3C//DTD SVG 1.1//EN" "http://www.w3.org/Graphics/SVG/1.1/DTD/svg11.dtd"><svg t="1597826329110" class="icon" viewBox="0 0 1024 1024" version="1.1" xmlns="http://www.w3.org/2000/svg" p-id="1562" xmlns:xlink="http://www.w3.org/1999/xlink" width="200" height="200"><defs><style type="text/css"></style></defs><path d="M512 1024A512 512 0 1 1 1024 512 512.650159 512.650159 0 0 1 512 1024z m0-1007.746032A495.746032 495.746032 0 1 0 1007.746032 512 496.233651 496.233651 0 0 0 512 16.253968z" p-id="1563"></path><path d="M487.456508 660.886349a40.147302 40.147302 0 0 1-0.812698 8.939683 19.504762 19.504762 0 0 1-2.275556 5.851428 8.939683 8.939683 0 0 1-3.250794 3.250794 7.801905 7.801905 0 0 1-3.738412 0.975238H289.645714a6.989206 6.989206 0 0 1-3.575873-0.975238 10.40254 10.40254 0 0 1-3.250793-3.250794 16.253968 16.253968 0 0 1-2.438096-5.851428 40.147302 40.147302 0 0 1-0.812698-8.939683 38.684444 38.684444 0 0 1 0.812698-8.614603 25.35619 25.35619 0 0 1 2.113016-6.013968 9.914921 9.914921 0 0 1 3.088254-3.575873 6.826667 6.826667 0 0 1 4.063492-1.300318h74.930794V368.152381l-69.404445 41.447619a31.045079 31.045079 0 0 1-8.452063 3.413333 5.688889 5.688889 0 0 1-5.20127-1.300317 10.24 10.24 0 0 1-2.600635-6.013968 65.015873 65.015873 0 0 1 0-10.56508 68.104127 68.104127 0 0 1 0-8.126984 25.35619 25.35619 0 0 1 1.300318-5.526349 11.865397 11.865397 0 0 1 2.438095-3.900952 21.617778 21.617778 0 0 1 4.063492-3.413334l82.732698-52.987936a9.752381 9.752381 0 0 1 2.763175-1.462857l4.226032-1.137778a35.108571 35.108571 0 0 1 5.851428 0h8.289524a93.297778 93.297778 0 0 1 11.052699 0 30.232381 30.232381 0 0 1 6.989206 1.462857 6.176508 6.176508 0 0 1 3.413333 2.438095 6.664127 6.664127 0 0 1 0.812699 3.250794V642.031746h65.015873a7.476825 7.476825 0 0 1 4.226031 1.300317 9.264762 9.264762 0 0 1 3.250794 3.575874 21.617778 21.617778 0 0 1 1.950476 6.013968 46.973968 46.973968 0 0 1 0.16254 7.964444zM774.989206 659.260952a51.2 51.2 0 0 1 0 8.939683 26.006349 26.006349 0 0 1-2.925714 6.339048 8.452063 8.452063 0 0 1-7.964444 5.201269h-198.298413a21.455238 21.455238 0 0 1-6.826667-0.975238 11.865397 11.865397 0 0 1-5.03873-3.250793 13.815873 13.815873 0 0 1-3.088254-6.339048 45.99873 45.99873 0 0 1-0.975238-10.24 96.386032 96.386032 0 0 1 0-9.752381 24.055873 24.055873 0 0 1 1.787937-7.314286 41.772698 41.772698 0 0 1 3.575873-6.339047 53.313016 53.313016 0 0 1 5.526349-6.826667l71.842539-73.955555a463.400635 463.400635 0 0 0 39.984762-45.836191 243.809524 243.809524 0 0 0 23.243175-36.896508 121.742222 121.742222 0 0 0 11.215238-30.232381 137.99619 137.99619 0 0 0 2.600635-25.51873 65.015873 65.015873 0 0 0-4.063492-22.593016 55.588571 55.588571 0 0 0-11.540318-18.692063 54.125714 54.125714 0 0 0-19.504761-13.003175 68.916825 68.916825 0 0 0-26.331429-4.713651 97.52381 97.52381 0 0 0-31.370159 4.713651 166.440635 166.440635 0 0 0-24.380952 10.24 199.92381 199.92381 0 0 0-17.066667 9.752381 22.430476 22.430476 0 0 1-10.402539 4.713651 6.013968 6.013968 0 0 1-3.575874-1.137778 7.801905 7.801905 0 0 1-2.600634-3.575873 29.094603 29.094603 0 0 1-1.625397-6.664127 74.930794 74.930794 0 0 1 0-10.07746v-7.151746a25.193651 25.193651 0 0 1 0.975238-5.20127 20.805079 20.805079 0 0 1 1.787936-4.226032 21.130159 21.130159 0 0 1 4.388572-4.87619 89.396825 89.396825 0 0 1 11.540317-7.964445 133.28254 133.28254 0 0 1 20.48-9.914921 184.807619 184.807619 0 0 1 27.144127-8.126984 142.384762 142.384762 0 0 1 31.207619-3.413333 130.031746 130.031746 0 0 1 45.673651 7.314286 91.184762 91.184762 0 0 1 32.507937 20.15492 82.407619 82.407619 0 0 1 19.342222 29.744762 101.587302 101.587302 0 0 1 6.339047 36.08381 195.047619 195.047619 0 0 1-2.763174 35.108571 139.621587 139.621587 0 0 1-13.165714 36.733968 278.267937 278.267937 0 0 1-28.444445 44.210794 644.144762 644.144762 0 0 1-48.761905 55.913651l-56.888889 59.489524h156.363175a8.289524 8.289524 0 0 1 4.226032 1.300317 10.727619 10.727619 0 0 1 3.575873 3.738413 18.366984 18.366984 0 0 1 2.275555 6.176508 48.761905 48.761905 0 0 1 0 8.939682z" p-id="1564"></path></svg>