<?xml version="1.0" standalone="no"?><!DOCTYPE svg PUBLIC "-//W3C//DTD SVG 1.1//EN" "http://www.w3.org/Graphics/SVG/1.1/DTD/svg11.dtd"><svg t="1597826332748" class="icon" viewBox="0 0 1024 1024" version="1.1" xmlns="http://www.w3.org/2000/svg" p-id="1699" xmlns:xlink="http://www.w3.org/1999/xlink" width="200" height="200"><defs><style type="text/css"></style></defs><path d="M512 1024A512 512 0 1 1 1024 512 512.650159 512.650159 0 0 1 512 1024z m0-1007.746032A495.746032 495.746032 0 1 0 1007.746032 512 496.233651 496.233651 0 0 0 512 16.253968z" p-id="1700"></path><path d="M476.891429 674.539683a40.147302 40.147302 0 0 1-0.812699 8.939682 19.504762 19.504762 0 0 1-2.275555 5.851429 8.939683 8.939683 0 0 1-3.250794 3.250793 7.801905 7.801905 0 0 1-3.738413 0.975238H279.080635a6.989206 6.989206 0 0 1-3.575873-0.975238 10.40254 10.40254 0 0 1-3.250794-3.250793 16.253968 16.253968 0 0 1-2.438095-5.851429 40.147302 40.147302 0 0 1-0.812698-8.939682 38.684444 38.684444 0 0 1 0.812698-8.614604 25.35619 25.35619 0 0 1 2.113016-6.013968 9.914921 9.914921 0 0 1 3.088254-3.575873 6.826667 6.826667 0 0 1 4.063492-1.300317h74.930794V381.968254L284.444444 422.603175a31.045079 31.045079 0 0 1-8.452063 3.413333 5.688889 5.688889 0 0 1-5.20127-1.300318 10.24 10.24 0 0 1-2.600635-6.013968 65.015873 65.015873 0 0 1 0-10.565079 68.104127 68.104127 0 0 1 0-8.126984 25.35619 25.35619 0 0 1 1.300318-5.526349 11.865397 11.865397 0 0 1 2.438095-3.900953 21.617778 21.617778 0 0 1 4.063492-3.413333l82.732698-52.987937a9.752381 9.752381 0 0 1 2.763175-1.462857l4.226032-1.137778a35.108571 35.108571 0 0 1 5.851428 0h8.289524a93.297778 93.297778 0 0 1 11.052699 0 30.232381 30.232381 0 0 1 7.314285 1.625397 6.176508 6.176508 0 0 1 3.413334 2.438095 6.664127 6.664127 0 0 1 0.812698 3.250794v315.652064h65.015873a7.476825 7.476825 0 0 1 4.226032 1.300317 9.264762 9.264762 0 0 1 3.250793 3.575873 21.942857 21.942857 0 0 1 1.950477 6.013968 46.32381 46.32381 0 0 1 0 9.102223zM761.660952 590.019048a110.852063 110.852063 0 0 1-8.614603 44.535873 95.248254 95.248254 0 0 1-24.706032 33.970793 111.014603 111.014603 0 0 1-39.822222 22.267937 172.779683 172.779683 0 0 1-53.313016 7.639365 185.457778 185.457778 0 0 1-33.808254-2.925714 214.227302 214.227302 0 0 1-27.956825-6.989207 128.731429 128.731429 0 0 1-20.31746-8.289524 57.539048 57.539048 0 0 1-10.077461-6.176508 16.253968 16.253968 0 0 1-3.250793-3.900952 21.617778 21.617778 0 0 1-1.950476-4.713651 35.271111 35.271111 0 0 1-1.300318-6.826666 95.248254 95.248254 0 0 1 0-9.914921 33.483175 33.483175 0 0 1 1.950476-13.815873 6.176508 6.176508 0 0 1 6.013969-4.226032 27.631746 27.631746 0 0 1 10.07746 4.388572 182.369524 182.369524 0 0 0 19.342222 9.589841 217.640635 217.640635 0 0 0 27.631746 9.589841 130.031746 130.031746 0 0 0 35.271111 4.388572 104.675556 104.675556 0 0 0 32.507937-4.713651 67.291429 67.291429 0 0 0 23.893333-13.328254 54.775873 54.775873 0 0 0 14.466032-20.48 67.128889 67.128889 0 0 0 4.87619-25.68127 58.026667 58.026667 0 0 0-24.218412-48.761905 86.633651 86.633651 0 0 0-29.257143-13.653333 150.674286 150.674286 0 0 0-39.334603-3.738413h-35.271112a10.565079 10.565079 0 0 1-4.388571-0.975238 9.102222 9.102222 0 0 1-3.738413-3.250793 18.854603 18.854603 0 0 1-2.600635-5.851429 36.571429 36.571429 0 0 1-0.975238-9.427302 37.546667 37.546667 0 0 1 0.812699-8.777143 16.253968 16.253968 0 0 1 2.275555-5.526349 9.102222 9.102222 0 0 1 7.964445-4.063492h31.370158a106.300952 106.300952 0 0 0 32.507937-4.713651 69.079365 69.079365 0 0 0 24.706032-13.653333 60.139683 60.139683 0 0 0 16.253968-21.292698 68.266667 68.266667 0 0 0 5.363809-27.631746 63.065397 63.065397 0 0 0-3.250793-21.780318 48.761905 48.761905 0 0 0-10.890159-17.716825 50.062222 50.062222 0 0 0-18.529524-11.865397 72.330159 72.330159 0 0 0-26.006349-4.388571 86.633651 86.633651 0 0 0-29.582222 4.87619 190.333968 190.333968 0 0 0-24.055873 10.40254 165.140317 165.140317 0 0 0-17.554286 10.402539 22.430476 22.430476 0 0 1-9.752381 4.876191 8.289524 8.289524 0 0 1-3.413333 0 5.36381 5.36381 0 0 1-2.438095-2.763175 19.017143 19.017143 0 0 1-1.300318-5.851428 90.372063 90.372063 0 0 1 0-9.914921v-7.314286a22.267937 22.267937 0 0 1 0.487619-6.339047 27.794286 27.794286 0 0 1 1.950476-4.226032 23.893333 23.893333 0 0 1 3.738413-4.551111 66.966349 66.966349 0 0 1 10.727619-7.639365 137.020952 137.020952 0 0 1 19.829841-9.914921 160.914286 160.914286 0 0 1 27.144127-8.126984 156.850794 156.850794 0 0 1 32.507937-3.413333 137.183492 137.183492 0 0 1 43.885714 6.339047 86.79619 86.79619 0 0 1 31.532699 18.041905 73.142857 73.142857 0 0 1 18.854603 27.956825 99.311746 99.311746 0 0 1 6.176508 35.92127 108.088889 108.088889 0 0 1-4.388572 31.532699 79.644444 79.644444 0 0 1-63.065397 55.913651 103.375238 103.375238 0 0 1 33.970794 9.264761 95.573333 95.573333 0 0 1 26.493968 18.529524 81.269841 81.269841 0 0 1 23.568254 57.701588z" p-id="1701"></path></svg>