<?xml version="1.0" standalone="no"?><!DOCTYPE svg PUBLIC "-//W3C//DTD SVG 1.1//EN" "http://www.w3.org/Graphics/SVG/1.1/DTD/svg11.dtd"><svg t="1597826336959" class="icon" viewBox="0 0 1024 1024" version="1.1" xmlns="http://www.w3.org/2000/svg" p-id="1836" xmlns:xlink="http://www.w3.org/1999/xlink" width="200" height="200"><defs><style type="text/css"></style></defs><path d="M512 1024A512 512 0 1 1 1024 512 512.650159 512.650159 0 0 1 512 1024z m0-1007.746032A495.746032 495.746032 0 1 0 1007.746032 512 496.233651 496.233651 0 0 0 512 16.253968z" p-id="1837"></path><path d="M481.605079 670.80127a40.147302 40.147302 0 0 1-0.812698 8.939682 19.504762 19.504762 0 0 1-2.275556 5.851429 8.939683 8.939683 0 0 1-3.250793 3.250794 7.801905 7.801905 0 0 1-3.738413 0.975238H284.444444a6.989206 6.989206 0 0 1-3.575873-0.975238 10.40254 10.40254 0 0 1-3.250793-3.250794 16.253968 16.253968 0 0 1-2.438095-5.851429 40.147302 40.147302 0 0 1-0.812699-8.939682 38.684444 38.684444 0 0 1 0.812699-8.614603 25.35619 25.35619 0 0 1 2.113015-6.013969 9.914921 9.914921 0 0 1 3.088254-3.575873 6.826667 6.826667 0 0 1 4.063492-1.300317h74.930794V378.067302L289.320635 419.352381a31.045079 31.045079 0 0 1-8.452064 3.413333 5.688889 5.688889 0 0 1-5.201269-1.300317 10.24 10.24 0 0 1-2.600635-6.013968 65.015873 65.015873 0 0 1 0-10.56508 67.941587 67.941587 0 0 1 0-8.126984 25.35619 25.35619 0 0 1 1.300317-5.526349 11.865397 11.865397 0 0 1 2.438095-3.900953 21.617778 21.617778 0 0 1 4.063492-3.413333l82.732699-52.987936a9.752381 9.752381 0 0 1 2.763174-1.462857l4.226032-1.137778a35.108571 35.108571 0 0 1 5.851429 0h8.289524a93.297778 93.297778 0 0 1 11.052698 0 30.232381 30.232381 0 0 1 6.989206 1.462857 6.176508 6.176508 0 0 1 3.413334 2.438095 6.664127 6.664127 0 0 1 0.812698 3.250794v315.977143h65.015873a7.476825 7.476825 0 0 1 4.226032 1.300317 9.264762 9.264762 0 0 1 3.250793 3.575873 21.942857 21.942857 0 0 1 1.950477 6.013968 46.32381 46.32381 0 0 1 0.162539 8.452064zM784.253968 587.418413a31.370159 31.370159 0 0 1-2.763174 14.466031 8.614603 8.614603 0 0 1-7.801905 5.20127h-40.634921V682.666667a6.013968 6.013968 0 0 1-1.137778 3.738412 8.777143 8.777143 0 0 1-4.063492 2.600635 32.507937 32.507937 0 0 1-7.476825 1.625397 101.749841 101.749841 0 0 1-11.702857 0 99.149206 99.149206 0 0 1-11.377778 0 29.907302 29.907302 0 0 1-7.314286-1.625397 7.801905 7.801905 0 0 1-3.738412-2.600635 6.664127 6.664127 0 0 1-0.975238-3.738412v-75.418413h-146.285715a16.253968 16.253968 0 0 1-5.526349-0.812698 9.589841 9.589841 0 0 1-4.063492-3.088254 13.815873 13.815873 0 0 1-2.438095-6.339048 68.916825 68.916825 0 0 1 0-10.890159v-9.427301a46.32381 46.32381 0 0 1 1.137778-7.639365 39.984762 39.984762 0 0 1 2.113015-6.664127q1.300317-3.250794 3.250794-6.826667l128.08127-218.290794a12.515556 12.515556 0 0 1 3.250794-4.063492 25.51873 25.51873 0 0 1 6.989206-2.763174 58.026667 58.026667 0 0 1 10.40254-1.462858H713.224127a75.418413 75.418413 0 0 1 11.215238 1.787937 17.716825 17.716825 0 0 1 6.501587 2.925714 5.36381 5.36381 0 0 1 2.275556 4.388572v229.668571h40.634921a8.777143 8.777143 0 0 1 7.639365 4.876191 29.744762 29.744762 0 0 1 2.763174 14.791111zM685.429841 370.590476l-116.053333 197.160635h116.053333z" p-id="1838"></path></svg>