<?xml version="1.0" standalone="no"?><!DOCTYPE svg PUBLIC "-//W3C//DTD SVG 1.1//EN" "http://www.w3.org/Graphics/SVG/1.1/DTD/svg11.dtd"><svg t="1597826300683" class="icon" viewBox="0 0 1024 1024" version="1.1" xmlns="http://www.w3.org/2000/svg" p-id="1020" xmlns:xlink="http://www.w3.org/1999/xlink" width="200" height="200"><defs><style type="text/css"></style></defs><path d="M512 1024A512 512 0 1 1 1024 512 512.650159 512.650159 0 0 1 512 1024z m0-1007.746032A495.746032 495.746032 0 1 0 1007.746032 512 496.233651 496.233651 0 0 0 512 16.253968z" p-id="1021"></path><path d="M617.488254 672.101587a52.825397 52.825397 0 0 1 0 8.939683 26.656508 26.656508 0 0 1-1.950476 6.501587 8.939683 8.939683 0 0 1-3.413334 3.900953 8.777143 8.777143 0 0 1-4.551111 1.300317H408.299683a21.455238 21.455238 0 0 1-6.826667-0.975238 11.865397 11.865397 0 0 1-5.03873-3.250794 13.815873 13.815873 0 0 1-3.088254-6.339047 45.99873 45.99873 0 0 1-0.975238-10.24 96.386032 96.386032 0 0 1 0-9.752381 24.055873 24.055873 0 0 1 1.787936-7.314286 43.723175 43.723175 0 0 1 3.575873-6.339048 53.638095 53.638095 0 0 1 5.526349-6.826666l71.84254-73.955556a461.450159 461.450159 0 0 0 39.984762-45.83619 243.809524 243.809524 0 0 0 23.243175-36.896508 121.417143 121.417143 0 0 0 10.727619-30.232381 136.695873 136.695873 0 0 0 2.600635-25.51873 65.015873 65.015873 0 0 0-4.063493-22.593016 55.426032 55.426032 0 0 0-11.540317-18.692064 54.125714 54.125714 0 0 0-19.017143-12.840635 68.916825 68.916825 0 0 0-26.331428-4.71365 97.52381 97.52381 0 0 0-31.370159 4.71365 166.765714 166.765714 0 0 0-24.380953 10.24 201.386667 201.386667 0 0 0-17.554285 10.24 22.430476 22.430476 0 0 1-10.40254 4.713651 6.013968 6.013968 0 0 1-3.575873-1.137778 7.801905 7.801905 0 0 1-2.600635-3.575873 28.606984 28.606984 0 0 1-1.625397-6.664127 74.930794 74.930794 0 0 1 0-10.07746v-7.151746a25.193651 25.193651 0 0 1 0.975238-5.20127 20.31746 20.31746 0 0 1 1.787937-4.226032 21.292698 21.292698 0 0 1 4.388571-4.87619 90.209524 90.209524 0 0 1 11.540318-7.964445 133.28254 133.28254 0 0 1 20.48-9.91492 184.807619 184.807619 0 0 1 27.144127-8.126984 142.384762 142.384762 0 0 1 31.207619-3.413334 130.031746 130.031746 0 0 1 45.673651 7.314286 90.859683 90.859683 0 0 1 32.507936 20.154921 82.08254 82.08254 0 0 1 19.342222 29.744762 101.587302 101.587302 0 0 1 6.339048 36.083809 195.047619 195.047619 0 0 1-3.088254 34.295873 139.133968 139.133968 0 0 1-12.840635 36.896508 277.942857 277.942857 0 0 1-28.444444 44.210794 646.257778 646.257778 0 0 1-48.761905 55.913651l-56.888889 59.489523h156.363175a8.289524 8.289524 0 0 1 4.226031 1.300318 10.727619 10.727619 0 0 1 3.575873 3.738413 18.692063 18.692063 0 0 1 2.275556 6.176507 50.224762 50.224762 0 0 1 0.487619 8.777143z" p-id="1022"></path></svg>