<?xml version="1.0" standalone="no"?><!DOCTYPE svg PUBLIC "-//W3C//DTD SVG 1.1//EN" "http://www.w3.org/Graphics/SVG/1.1/DTD/svg11.dtd"><svg t="1597826311691" class="icon" viewBox="0 0 1024 1024" version="1.1" xmlns="http://www.w3.org/2000/svg" p-id="1290" xmlns:xlink="http://www.w3.org/1999/xlink" width="200" height="200"><defs><style type="text/css"></style></defs><path d="M512 1024A512 512 0 1 1 1024 512 512.650159 512.650159 0 0 1 512 1024z m0-1007.746032A495.746032 495.746032 0 1 0 1007.746032 512 496.233651 496.233651 0 0 0 512 16.253968z" p-id="1291"></path><path d="M624.152381 590.344127a110.852063 110.852063 0 0 1-8.614603 44.535873 95.248254 95.248254 0 0 1-24.706032 33.970794 111.014603 111.014603 0 0 1-39.659683 21.942857 172.779683 172.779683 0 0 1-53.313015 7.639365 185.457778 185.457778 0 0 1-33.808254-2.925714 214.389841 214.389841 0 0 1-27.956826-6.989207 129.056508 129.056508 0 0 1-20.31746-8.289524 57.864127 57.864127 0 0 1-10.07746-6.176508 16.253968 16.253968 0 0 1-3.250794-3.900952 22.430476 22.430476 0 0 1-1.950476-4.713651 36.571429 36.571429 0 0 1-1.300318-6.826666 95.573333 95.573333 0 0 1 0-9.914921 33.645714 33.645714 0 0 1 1.950477-13.815873 6.176508 6.176508 0 0 1 5.688888-3.900952 27.631746 27.631746 0 0 1 10.077461 4.388571 180.906667 180.906667 0 0 0 19.342222 9.589841 217.803175 217.803175 0 0 0 27.631746 9.589842 130.031746 130.031746 0 0 0 35.108571 3.738412 104.675556 104.675556 0 0 0 32.507937-4.713651 67.291429 67.291429 0 0 0 23.893333-13.328253 54.775873 54.775873 0 0 0 14.466032-20.48 67.128889 67.128889 0 0 0 4.87619-25.68127 58.026667 58.026667 0 0 0-24.218412-48.761905 86.471111 86.471111 0 0 0-29.257143-13.653333 150.836825 150.836825 0 0 0-38.846984-3.413334H446.984127a10.727619 10.727619 0 0 1-4.388571-0.975238 9.102222 9.102222 0 0 1-3.738413-3.250793 18.854603 18.854603 0 0 1-2.600635-5.851429 36.571429 36.571429 0 0 1-0.975238-9.427302 38.359365 38.359365 0 0 1 0.812698-8.777143 16.253968 16.253968 0 0 1 2.438095-5.526349 9.102222 9.102222 0 0 1 7.964445-4.063492h31.370159a106.300952 106.300952 0 0 0 32.507936-4.713651 69.079365 69.079365 0 0 0 24.706032-13.653333 59.814603 59.814603 0 0 0 16.253968-21.292698 68.266667 68.266667 0 0 0 5.36381-27.631746 63.065397 63.065397 0 0 0-3.575873-21.292699 48.761905 48.761905 0 0 0-10.890159-17.716825 49.899683 49.899683 0 0 0-18.529524-11.865397 72.330159 72.330159 0 0 0-26.006349-4.388571 86.633651 86.633651 0 0 0-29.582222 4.87619 190.496508 190.496508 0 0 0-24.055873 10.40254 166.603175 166.603175 0 0 0-17.554286 10.402539 22.430476 22.430476 0 0 1-9.752381 4.876191 8.289524 8.289524 0 0 1-3.413333 0 5.36381 5.36381 0 0 1-2.438096-2.763175 19.017143 19.017143 0 0 1-1.300317-5.851428 90.697143 90.697143 0 0 1 0-9.914921v-7.314286a22.755556 22.755556 0 0 1 1.137778-5.526349 26.493968 26.493968 0 0 1 1.950476-4.226032 23.243175 23.243175 0 0 1 3.738413-4.551111 67.128889 67.128889 0 0 1 10.727619-7.639365 135.720635 135.720635 0 0 1 19.829841-10.727619 161.076825 161.076825 0 0 1 27.144127-8.126984 156.850794 156.850794 0 0 1 32.507936-3.413333 137.183492 137.183492 0 0 1 43.885715 6.339047 86.79619 86.79619 0 0 1 31.532698 18.041905 73.142857 73.142857 0 0 1 18.854603 27.956826 99.311746 99.311746 0 0 1 6.176508 35.921269 108.088889 108.088889 0 0 1-4.388571 31.532699 79.644444 79.644444 0 0 1-63.065397 55.913651 103.375238 103.375238 0 0 1 33.970794 9.264761 95.573333 95.573333 0 0 1 26.493968 18.529524 81.269841 81.269841 0 0 1 23.568254 57.701588z" p-id="1292"></path></svg>