<?xml version="1.0" standalone="no"?><!DOCTYPE svg PUBLIC "-//W3C//DTD SVG 1.1//EN" "http://www.w3.org/Graphics/SVG/1.1/DTD/svg11.dtd"><svg t="1597826307292" class="icon" viewBox="0 0 1024 1024" version="1.1" xmlns="http://www.w3.org/2000/svg" p-id="1155" xmlns:xlink="http://www.w3.org/1999/xlink" width="200" height="200"><defs><style type="text/css"></style></defs><path d="M512 1024A512 512 0 1 1 1024 512 512.650159 512.650159 0 0 1 512 1024z m0-1007.746032A495.746032 495.746032 0 1 0 1007.746032 512 496.233651 496.233651 0 0 0 512 16.253968z" p-id="1156"></path><path d="M623.177143 578.80381a31.370159 31.370159 0 0 1-2.763175 14.466031 8.614603 8.614603 0 0 1-7.801905 5.20127H572.139683v76.068572a6.013968 6.013968 0 0 1-1.137778 3.738412 8.777143 8.777143 0 0 1-4.063492 2.600635 32.507937 32.507937 0 0 1-7.476826 1.625397 101.749841 101.749841 0 0 1-11.702857 0 98.986667 98.986667 0 0 1-11.377778 0 30.069841 30.069841 0 0 1-7.314285-1.625397 7.801905 7.801905 0 0 1-3.738413-2.600635 6.664127 6.664127 0 0 1-0.975238-3.738412v-76.068572h-146.285714a16.253968 16.253968 0 0 1-5.52635-0.812698 9.427302 9.427302 0 0 1-4.063492-3.088254 13.653333 13.653333 0 0 1-2.438095-6.339048 68.916825 68.916825 0 0 1 0-10.890159v-9.427301a46.32381 46.32381 0 0 1-0.325079-7.151746 41.447619 41.447619 0 0 1 2.275555-6.664127q1.300317-3.250794 3.250794-6.826667l128.08127-218.290794a12.678095 12.678095 0 0 1 4.063492-3.900952 25.68127 25.68127 0 0 1 6.989206-2.763175 58.026667 58.026667 0 0 1 10.40254-1.462857H551.822222a75.093333 75.093333 0 0 1 11.215238 1.787937 17.879365 17.879365 0 0 1 6.501588 2.925714 5.36381 5.36381 0 0 1 2.275555 4.388572v229.180952h40.634921a8.614603 8.614603 0 0 1 7.639365 4.87619 29.744762 29.744762 0 0 1 3.088254 14.791112z m-98.824127-216.990477L408.137143 559.136508h116.053333z" p-id="1157"></path></svg>